# xmcd
#
# Track frame offsets: 
#        150
#        7300
#        26674
#        47903
#        62184
#        88055
#        93759
#        110047
#        126302
#        144933
#        161982
#        183929
#
# Disc length: 2765 seconds
#
# Revision: 1
# Processed by: cddbd v1.5.2PL0 Copyright (c) Steve Scherf et al.
# Submitted via: ExactAudioCopyFreeDBPlugin 1.0
#
DISCID=aa0acb0c
DTITLE=Chris Thomas King - Act II: Revelations 2000 and Beyond
DYEAR=2001
DGENRE=Blues
TTITLE0=The Cloning (Resurrection Overture #5)
TTITLE1=Welcome To Da Jungle
TTITLE2=21st Century Blues
TTITLE3=Keep'n It Real Blues
TTITLE4=Da Thrill Is Gone (From Here) with Tabby Thomas
TTITLE5=Dirty South Chicken Heads
TTITLE6=Southern Chicks
TTITLE7=Ghetto Child (You're Not Alone)
TTITLE8=I Want Yo Kiss
TTITLE9=Mississippi Kkkrossroads
TTITLE10=Gonna Take A Miracle
TTITLE11=Revelations
EXTD=
EXTT0=
EXTT1=
EXTT2=
EXTT3=
EXTT4=
EXTT5=
EXTT6=
EXTT7=
EXTT8=
EXTT9=
EXTT10=
EXTT11=
PLAYORDER=
